<svg xmlns="http://www.w3.org/2000/svg" viewBox="0 0 64 64" fill="none" role="img" aria-label="Spotless UAE">
<defs></defs>
<path d="M20,16L44,16L56,28L32,58L8,28Z" fill="#ffffff"/><path d="M20,16L44,16L38,28L26,28Z" fill="#ffffff" fill-opacity="0.2"/><path d="M20,16L26,28L8,28Z" fill="#0a1628" fill-opacity="0.2"/><path d="M44,16L56,28L38,28Z" fill="#ffffff" fill-opacity="0.1"/><path d="M8,28L26,28L32,58Z" fill="#0a1628" fill-opacity="0.12"/><path d="M26,28L38,28L32,58Z" fill="#ffffff" fill-opacity="0.24"/><path d="M38,28L56,28L32,58Z" fill="#0a1628" fill-opacity="0.24"/><g stroke="#0a1628" stroke-opacity="0.16" stroke-width="0.6" fill="none" stroke-linejoin="round"><path d="M26,28L38,28"/><path d="M8,28L26,28"/><path d="M56,28L38,28"/><path d="M26,28L32,58"/><path d="M38,28L32,58"/></g>
</svg>
