<svg xmlns="http://www.w3.org/2000/svg" viewBox="0 0 320 72" fill="none" role="img" aria-label="spotless UAE">
<defs></defs>
<g transform="translate(6 10) scale(0.8)"><path d="M20,16L44,16L56,28L32,58L8,28Z" fill="#ffffff"/><path d="M20,16L44,16L38,28L26,28Z" fill="#ffffff" fill-opacity="0.2"/><path d="M20,16L26,28L8,28Z" fill="#0a1628" fill-opacity="0.2"/><path d="M44,16L56,28L38,28Z" fill="#ffffff" fill-opacity="0.1"/><path d="M8,28L26,28L32,58Z" fill="#0a1628" fill-opacity="0.12"/><path d="M26,28L38,28L32,58Z" fill="#ffffff" fill-opacity="0.24"/><path d="M38,28L56,28L32,58Z" fill="#0a1628" fill-opacity="0.24"/><g stroke="#0a1628" stroke-opacity="0.16" stroke-width="0.6" fill="none" stroke-linejoin="round"><path d="M26,28L38,28"/><path d="M8,28L26,28"/><path d="M56,28L38,28"/><path d="M26,28L32,58"/><path d="M38,28L32,58"/></g></g>
<path d="M82.12 46.32Q79.67 46.32 77.72 45.44Q75.78 44.56 74.65 43.05Q73.51 41.54 73.40 39.70L78.48 39.70Q78.62 40.85 79.61 41.61Q80.60 42.36 82.08 42.36Q83.52 42.36 84.33 41.79Q85.14 41.21 85.14 40.31Q85.14 39.34 84.15 38.85Q83.16 38.37 81 37.79Q78.77 37.25 77.35 36.68Q75.92 36.10 74.90 34.91Q73.87 33.72 73.87 31.71Q73.87 30.05 74.83 28.68Q75.78 27.32 77.56 26.52Q79.34 25.73 81.76 25.73Q85.32 25.73 87.44 27.51Q89.57 29.30 89.78 32.32L84.96 32.32Q84.85 31.13 83.97 30.43Q83.09 29.73 81.61 29.73Q80.24 29.73 79.51 30.23Q78.77 30.74 78.77 31.64Q78.77 32.64 79.78 33.17Q80.78 33.69 82.91 34.23Q85.07 34.77 86.47 35.34Q87.88 35.92 88.90 37.13Q89.93 38.33 89.96 40.31Q89.96 42.04 89.01 43.41Q88.06 44.78 86.27 45.55Q84.49 46.32 82.12 46.32M100.94 28.94Q101.92 27.57 103.63 26.65Q105.34 25.73 107.53 25.73Q110.09 25.73 112.16 26.99Q114.23 28.25 115.43 30.57Q116.64 32.90 116.64 35.96Q116.64 39.02 115.43 41.37Q114.23 43.73 112.16 45.03Q110.09 46.32 107.53 46.32Q105.34 46.32 103.66 45.42Q101.99 44.52 100.94 43.16L100.94 55.50L95.90 55.50L95.90 26.06L100.94 26.06L100.94 28.94M111.49 35.96Q111.49 34.16 110.75 32.84Q110.02 31.53 108.81 30.84Q107.60 30.16 106.20 30.16Q104.83 30.16 103.63 30.86Q102.42 31.56 101.68 32.90Q100.94 34.23 100.94 36.03Q100.94 37.83 101.68 39.16Q102.42 40.49 103.63 41.19Q104.83 41.90 106.20 41.90Q107.60 41.90 108.81 41.18Q110.02 40.46 110.75 39.12Q111.49 37.79 111.49 35.96M130.97 46.32Q128.09 46.32 125.78 45.05Q123.48 43.77 122.17 41.43Q120.85 39.09 120.85 36.03Q120.85 32.97 122.20 30.63Q123.55 28.29 125.89 27.01Q128.23 25.73 131.11 25.73Q133.99 25.73 136.33 27.01Q138.67 28.29 140.02 30.63Q141.37 32.97 141.37 36.03Q141.37 39.09 139.99 41.43Q138.60 43.77 136.24 45.05Q133.88 46.32 130.97 46.32M130.97 41.93Q132.34 41.93 133.54 41.27Q134.75 40.60 135.47 39.27Q136.19 37.94 136.19 36.03Q136.19 33.18 134.69 31.65Q133.20 30.12 131.04 30.12Q128.88 30.12 127.42 31.65Q125.96 33.18 125.96 36.03Q125.96 38.87 127.39 40.40Q128.81 41.93 130.97 41.93M157.21 30.20L152.75 30.20L152.75 39.84Q152.75 40.85 153.23 41.30Q153.72 41.75 154.87 41.75L157.21 41.75L157.21 46L154.04 46Q147.67 46 147.67 39.81L147.67 30.20L145.30 30.20L145.30 26.06L147.67 26.06L147.67 21.12L152.75 21.12L152.75 26.06L157.21 26.06L157.21 30.20M162.65 19.36L167.69 19.36L167.69 46L162.65 46L162.65 19.36M193 35.60Q193 36.68 192.85 37.54L178.27 37.54Q178.45 39.70 179.78 40.92Q181.12 42.15 183.06 42.15Q185.87 42.15 187.06 39.74L192.49 39.74Q191.63 42.62 189.18 44.47Q186.73 46.32 183.17 46.32Q180.29 46.32 178 45.05Q175.72 43.77 174.44 41.43Q173.16 39.09 173.16 36.03Q173.16 32.93 174.42 30.59Q175.68 28.25 177.95 26.99Q180.22 25.73 183.17 25.73Q186.01 25.73 188.26 26.96Q190.51 28.18 191.75 30.43Q193 32.68 193 35.60M178.31 34.16L187.78 34.16Q187.74 32.21 186.37 31.04Q185 29.87 183.02 29.87Q181.15 29.87 179.87 31.01Q178.60 32.14 178.31 34.16M206.10 46.32Q203.65 46.32 201.71 45.44Q199.76 44.56 198.63 43.05Q197.50 41.54 197.39 39.70L202.46 39.70Q202.61 40.85 203.60 41.61Q204.59 42.36 206.06 42.36Q207.50 42.36 208.31 41.79Q209.12 41.21 209.12 40.31Q209.12 39.34 208.13 38.85Q207.14 38.37 204.98 37.79Q202.75 37.25 201.33 36.68Q199.91 36.10 198.88 34.91Q197.86 33.72 197.86 31.71Q197.86 30.05 198.81 28.68Q199.76 27.32 201.55 26.52Q203.33 25.73 205.74 25.73Q209.30 25.73 211.43 27.51Q213.55 29.30 213.77 32.32L208.94 32.32Q208.84 31.13 207.95 30.43Q207.07 29.73 205.60 29.73Q204.23 29.73 203.49 30.23Q202.75 30.74 202.75 31.64Q202.75 32.64 203.76 33.17Q204.77 33.69 206.89 34.23Q209.05 34.77 210.46 35.34Q211.86 35.92 212.89 37.13Q213.91 38.33 213.95 40.31Q213.95 42.04 212.99 43.41Q212.04 44.78 210.26 45.55Q208.48 46.32 206.10 46.32M227.52 46.32Q225.07 46.32 223.13 45.44Q221.18 44.56 220.05 43.05Q218.92 41.54 218.81 39.70L223.88 39.70Q224.03 40.85 225.02 41.61Q226.01 42.36 227.48 42.36Q228.92 42.36 229.73 41.79Q230.54 41.21 230.54 40.31Q230.54 39.34 229.55 38.85Q228.56 38.37 226.40 37.79Q224.17 37.25 222.75 36.68Q221.33 36.10 220.30 34.91Q219.28 33.72 219.28 31.71Q219.28 30.05 220.23 28.68Q221.18 27.32 222.97 26.52Q224.75 25.73 227.16 25.73Q230.72 25.73 232.85 27.51Q234.97 29.30 235.19 32.32L230.36 32.32Q230.26 31.13 229.37 30.43Q228.49 29.73 227.02 29.73Q225.65 29.73 224.91 30.23Q224.17 30.74 224.17 31.64Q224.17 32.64 225.18 33.17Q226.19 33.69 228.31 34.23Q230.47 34.77 231.88 35.34Q233.28 35.92 234.31 37.13Q235.33 38.33 235.37 40.31Q235.37 42.04 234.41 43.41Q233.46 44.78 231.68 45.55Q229.90 46.32 227.52 46.32" fill="#ffffff"/>
<path d="M251.49 30.90L253 30.90L253 40.41Q253 42.65 254.07 43.73Q255.14 44.81 257 44.81Q258.85 44.81 259.90 43.74Q260.95 42.67 260.95 40.41L260.95 30.90L262.46 30.90L262.46 40.38Q262.46 43.26 260.94 44.70Q259.41 46.15 256.97 46.15Q254.53 46.15 253.01 44.70Q251.49 43.26 251.49 40.38L251.49 30.90M276.98 46L275.66 42.41L268.79 42.41L267.47 46L265.87 46L271.38 31.10L273.09 31.10L278.57 46L276.98 46M269.24 41.16L275.20 41.16L272.22 33L269.24 41.16M289.96 32.13L283.58 32.13L283.58 37.77L289.31 37.77L289.31 39.02L283.58 39.02L283.58 44.75L289.96 44.75L289.96 46L282.07 46L282.07 30.88L289.96 30.88" fill="#ffffff" fill-opacity="0.7"/>
</svg>
