<svg xmlns="http://www.w3.org/2000/svg" viewBox="0 0 1200 630" fill="none">
<rect width="1200" height="630" fill="#0a1628"/>
<g stroke="#ffffff" stroke-opacity="0.04" stroke-width="1"><line x1="0" y1="0" x2="0" y2="630"/><line x1="60" y1="0" x2="60" y2="630"/><line x1="120" y1="0" x2="120" y2="630"/><line x1="180" y1="0" x2="180" y2="630"/><line x1="240" y1="0" x2="240" y2="630"/><line x1="300" y1="0" x2="300" y2="630"/><line x1="360" y1="0" x2="360" y2="630"/><line x1="420" y1="0" x2="420" y2="630"/><line x1="480" y1="0" x2="480" y2="630"/><line x1="540" y1="0" x2="540" y2="630"/><line x1="600" y1="0" x2="600" y2="630"/><line x1="660" y1="0" x2="660" y2="630"/><line x1="720" y1="0" x2="720" y2="630"/><line x1="780" y1="0" x2="780" y2="630"/><line x1="840" y1="0" x2="840" y2="630"/><line x1="900" y1="0" x2="900" y2="630"/><line x1="960" y1="0" x2="960" y2="630"/><line x1="1020" y1="0" x2="1020" y2="630"/><line x1="1080" y1="0" x2="1080" y2="630"/><line x1="1140" y1="0" x2="1140" y2="630"/><line x1="1200" y1="0" x2="1200" y2="630"/><line x1="0" y1="0" x2="1200" y2="0"/><line x1="0" y1="60" x2="1200" y2="60"/><line x1="0" y1="120" x2="1200" y2="120"/><line x1="0" y1="180" x2="1200" y2="180"/><line x1="0" y1="240" x2="1200" y2="240"/><line x1="0" y1="300" x2="1200" y2="300"/><line x1="0" y1="360" x2="1200" y2="360"/><line x1="0" y1="420" x2="1200" y2="420"/><line x1="0" y1="480" x2="1200" y2="480"/><line x1="0" y1="540" x2="1200" y2="540"/><line x1="0" y1="600" x2="1200" y2="600"/></g>
<g transform="translate(229.9 220) scale(1.9)"><path d="M20,16L44,16L56,28L32,58L8,28Z" fill="#ffffff"/><path d="M20,16L44,16L38,28L26,28Z" fill="#ffffff" fill-opacity="0.2"/><path d="M20,16L26,28L8,28Z" fill="#0a1628" fill-opacity="0.2"/><path d="M44,16L56,28L38,28Z" fill="#ffffff" fill-opacity="0.1"/><path d="M8,28L26,28L32,58Z" fill="#0a1628" fill-opacity="0.12"/><path d="M26,28L38,28L32,58Z" fill="#ffffff" fill-opacity="0.24"/><path d="M38,28L56,28L32,58Z" fill="#0a1628" fill-opacity="0.24"/><g stroke="#0a1628" stroke-opacity="0.16" stroke-width="0.6" fill="none" stroke-linejoin="round"><path d="M26,28L38,28"/><path d="M8,28L26,28"/><path d="M56,28L38,28"/><path d="M26,28L32,58"/><path d="M38,28L32,58"/></g></g>
<path d="M410.92 313.50Q404.40 313.50 399.21 311.15Q394.03 308.80 391 304.77Q387.98 300.74 387.69 295.84L401.23 295.84Q401.61 298.91 404.25 300.93Q406.89 302.94 410.83 302.94Q414.67 302.94 416.83 301.41Q418.99 299.87 418.99 297.47Q418.99 294.88 416.35 293.58Q413.71 292.29 407.95 290.75Q402 289.31 398.20 287.78Q394.41 286.24 391.68 283.07Q388.94 279.90 388.94 274.53Q388.94 270.11 391.48 266.46Q394.03 262.82 398.78 260.70Q403.53 258.59 409.96 258.59Q419.47 258.59 425.13 263.34Q430.80 268.10 431.37 276.16L418.51 276.16Q418.22 272.99 415.87 271.12Q413.52 269.25 409.58 269.25Q405.93 269.25 403.96 270.59Q402 271.94 402 274.34Q402 277.02 404.68 278.42Q407.37 279.81 413.04 281.25Q418.80 282.69 422.54 284.22Q426.28 285.76 429.02 288.98Q431.76 292.19 431.85 297.47Q431.85 302.08 429.31 305.73Q426.76 309.38 422.01 311.44Q417.26 313.50 410.92 313.50M461.13 267.14Q463.72 263.49 468.28 261.04Q472.84 258.59 478.70 258.59Q485.52 258.59 491.04 261.95Q496.56 265.31 499.77 271.50Q502.99 277.70 502.99 285.86Q502.99 294.02 499.77 300.30Q496.56 306.59 491.04 310.05Q485.52 313.50 478.70 313.50Q472.84 313.50 468.38 311.10Q463.92 308.70 461.13 305.06L461.13 337.98L447.69 337.98L447.69 259.46L461.13 259.46L461.13 267.14M489.26 285.86Q489.26 281.06 487.29 277.55Q485.32 274.05 482.11 272.22Q478.89 270.40 475.15 270.40Q471.50 270.40 468.28 272.27Q465.07 274.14 463.10 277.70Q461.13 281.25 461.13 286.05Q461.13 290.85 463.10 294.40Q465.07 297.95 468.28 299.82Q471.50 301.70 475.15 301.70Q478.89 301.70 482.11 299.78Q485.32 297.86 487.29 294.30Q489.26 290.75 489.26 285.86M541.20 313.50Q533.52 313.50 527.37 310.10Q521.23 306.69 517.72 300.45Q514.22 294.21 514.22 286.05Q514.22 277.89 517.82 271.65Q521.42 265.41 527.66 262Q533.90 258.59 541.58 258.59Q549.26 258.59 555.50 262Q561.74 265.41 565.34 271.65Q568.94 277.89 568.94 286.05Q568.94 294.21 565.24 300.45Q561.55 306.69 555.26 310.10Q548.97 313.50 541.20 313.50M541.20 301.79Q544.84 301.79 548.06 300.02Q551.28 298.24 553.20 294.69Q555.12 291.14 555.12 286.05Q555.12 278.46 551.13 274.38Q547.15 270.30 541.39 270.30Q535.63 270.30 531.74 274.38Q527.85 278.46 527.85 286.05Q527.85 293.63 531.64 297.71Q535.44 301.79 541.20 301.79M611.18 270.50L599.28 270.50L599.28 296.22Q599.28 298.91 600.57 300.11Q601.87 301.31 604.94 301.31L611.18 301.31L611.18 312.64L602.73 312.64Q585.74 312.64 585.74 296.13L585.74 270.50L579.40 270.50L579.40 259.46L585.74 259.46L585.74 246.30L599.28 246.30L599.28 259.46L611.18 259.46L611.18 270.50M625.68 241.60L639.12 241.60L639.12 312.64L625.68 312.64L625.68 241.60M706.60 284.90Q706.60 287.78 706.22 290.08L667.34 290.08Q667.82 295.84 671.37 299.10Q674.92 302.37 680.11 302.37Q687.60 302.37 690.76 295.94L705.26 295.94Q702.96 303.62 696.43 308.56Q689.90 313.50 680.40 313.50Q672.72 313.50 666.62 310.10Q660.52 306.69 657.12 300.45Q653.71 294.21 653.71 286.05Q653.71 277.79 657.07 271.55Q660.43 265.31 666.48 261.95Q672.52 258.59 680.40 258.59Q687.98 258.59 693.98 261.86Q699.98 265.12 703.29 271.12Q706.60 277.12 706.60 284.90M667.44 281.06L692.68 281.06Q692.59 275.87 688.94 272.75Q685.29 269.63 680.01 269.63Q675.02 269.63 671.61 272.66Q668.20 275.68 667.44 281.06M741.55 313.50Q735.02 313.50 729.84 311.15Q724.65 308.80 721.63 304.77Q718.60 300.74 718.32 295.84L731.85 295.84Q732.24 298.91 734.88 300.93Q737.52 302.94 741.45 302.94Q745.29 302.94 747.45 301.41Q749.61 299.87 749.61 297.47Q749.61 294.88 746.97 293.58Q744.33 292.29 738.57 290.75Q732.62 289.31 728.83 287.78Q725.04 286.24 722.30 283.07Q719.56 279.90 719.56 274.53Q719.56 270.11 722.11 266.46Q724.65 262.82 729.40 260.70Q734.16 258.59 740.59 258.59Q750.09 258.59 755.76 263.34Q761.42 268.10 762 276.16L749.13 276.16Q748.84 272.99 746.49 271.12Q744.14 269.25 740.20 269.25Q736.56 269.25 734.59 270.59Q732.62 271.94 732.62 274.34Q732.62 277.02 735.31 278.42Q738 279.81 743.66 281.25Q749.42 282.69 753.16 284.22Q756.91 285.76 759.64 288.98Q762.38 292.19 762.48 297.47Q762.48 302.08 759.93 305.73Q757.39 309.38 752.64 311.44Q747.88 313.50 741.55 313.50M798.67 313.50Q792.14 313.50 786.96 311.15Q781.77 308.80 778.75 304.77Q775.72 300.74 775.44 295.84L788.97 295.84Q789.36 298.91 792 300.93Q794.64 302.94 798.57 302.94Q802.41 302.94 804.57 301.41Q806.73 299.87 806.73 297.47Q806.73 294.88 804.09 293.58Q801.45 292.29 795.69 290.75Q789.74 289.31 785.95 287.78Q782.16 286.24 779.42 283.07Q776.68 279.90 776.68 274.53Q776.68 270.11 779.23 266.46Q781.77 262.82 786.52 260.70Q791.28 258.59 797.71 258.59Q807.21 258.59 812.88 263.34Q818.54 268.10 819.12 276.16L806.25 276.16Q805.96 272.99 803.61 271.12Q801.26 269.25 797.32 269.25Q793.68 269.25 791.71 270.59Q789.74 271.94 789.74 274.34Q789.74 277.02 792.43 278.42Q795.12 279.81 800.78 281.25Q806.54 282.69 810.28 284.22Q814.03 285.76 816.76 288.98Q819.50 292.19 819.60 297.47Q819.60 302.08 817.05 305.73Q814.51 309.38 809.76 311.44Q805 313.50 798.67 313.50" fill="#ffffff"/>
<path d="M861.25 272.38L865.28 272.38L865.28 297.72Q865.28 303.71 868.13 306.59Q870.98 309.47 875.93 309.47Q880.89 309.47 883.68 306.62Q886.48 303.77 886.48 297.72L886.48 272.38L890.51 272.38L890.51 297.66Q890.51 305.32 886.45 309.18Q882.39 313.04 875.88 313.04Q869.37 313.04 865.31 309.18Q861.25 305.32 861.25 297.66L861.25 272.38M929.21 312.64L925.70 303.08L907.38 303.08L903.87 312.64L899.61 312.64L914.30 272.90L918.85 272.90L933.48 312.64L929.21 312.64M908.59 299.74L924.49 299.74L916.54 277.96L908.59 299.74M963.83 275.66L946.84 275.66L946.84 290.69L962.10 290.69L962.10 294.04L946.84 294.04L946.84 309.30L963.83 309.30L963.83 312.64L942.81 312.64L942.81 272.32L963.83 272.32" fill="#ffffff" fill-opacity="0.7"/>
<path d="M166.04 373.07Q166.04 376.13 164.03 378Q162.03 379.87 158.02 379.87L153.22 379.87L153.22 390L150.84 390L150.84 366.23L158.02 366.23Q161.99 366.23 164.02 368.10Q166.04 369.97 166.04 373.07M158.02 377.83Q163.59 377.83 163.59 373.07Q163.59 370.69 162.27 369.46Q160.94 368.24 158.02 368.24L153.22 368.24L153.22 377.83L158.02 377.83M173.76 374.73Q174.54 373 176.16 372.05Q177.77 371.10 180.12 371.10L180.12 373.58L179.47 373.58Q176.89 373.58 175.32 374.97Q173.76 376.37 173.76 379.63L173.76 390L171.38 390L171.38 371.44L173.76 371.44L173.76 374.73M193.17 390.27Q190.55 390.27 188.46 389.10Q186.37 387.93 185.17 385.77Q183.96 383.61 183.96 380.72Q183.96 377.83 185.18 375.67Q186.41 373.51 188.51 372.34Q190.62 371.16 193.24 371.16Q195.86 371.16 197.98 372.34Q200.11 373.51 201.32 375.67Q202.52 377.83 202.52 380.72Q202.52 383.57 201.30 385.75Q200.07 387.93 197.93 389.10Q195.79 390.27 193.17 390.27M193.17 388.20Q195.01 388.20 196.57 387.37Q198.14 386.53 199.11 384.85Q200.07 383.17 200.07 380.72Q200.07 378.27 199.12 376.59Q198.17 374.90 196.61 374.07Q195.04 373.24 193.21 373.24Q191.37 373.24 189.81 374.07Q188.24 374.90 187.31 376.59Q186.37 378.27 186.37 380.72Q186.37 383.17 187.31 384.85Q188.24 386.53 189.79 387.37Q191.34 388.20 193.17 388.20M215.54 371.44L215.54 373.44L211.23 373.44L211.23 390L208.85 390L208.85 373.44L206.26 373.44L206.26 371.44L208.85 371.44L208.85 370.14Q208.85 367.12 210.39 365.69Q211.94 364.26 215.41 364.26L215.41 366.30Q213.10 366.30 212.16 367.19Q211.23 368.07 211.23 370.14L211.23 371.44L215.54 371.44M237.44 379.77Q237.44 380.99 237.37 381.64L221.97 381.64Q222.07 383.74 222.99 385.24Q223.91 386.74 225.40 387.50Q226.90 388.27 228.67 388.27Q230.98 388.27 232.56 387.14Q234.14 386.02 234.65 384.12L237.17 384.12Q236.49 386.84 234.26 388.56Q232.03 390.27 228.67 390.27Q226.05 390.27 223.98 389.10Q221.90 387.93 220.73 385.77Q219.56 383.61 219.56 380.72Q219.56 377.83 220.71 375.65Q221.87 373.48 223.94 372.32Q226.02 371.16 228.67 371.16Q231.32 371.16 233.31 372.32Q235.30 373.48 236.37 375.43Q237.44 377.39 237.44 379.77M235.03 379.70Q235.06 377.62 234.19 376.16Q233.33 374.70 231.83 373.95Q230.33 373.20 228.57 373.20Q225.91 373.20 224.04 374.90Q222.17 376.60 221.97 379.70L235.03 379.70M249.54 390.27Q246.35 390.27 244.33 388.79Q242.30 387.31 242.06 384.76L244.51 384.76Q244.68 386.33 245.99 387.30Q247.30 388.27 249.51 388.27Q251.45 388.27 252.55 387.35Q253.66 386.43 253.66 385.07Q253.66 384.12 253.05 383.51Q252.43 382.89 251.50 382.54Q250.56 382.18 248.97 381.77Q246.89 381.23 245.60 380.68Q244.31 380.14 243.41 379.07Q242.51 378 242.51 376.20Q242.51 374.84 243.32 373.68Q244.14 372.52 245.63 371.84Q247.13 371.16 249.03 371.16Q252.03 371.16 253.86 372.68Q255.70 374.19 255.83 376.84L253.45 376.84Q253.35 375.21 252.18 374.21Q251.01 373.20 248.97 373.20Q247.16 373.20 246.04 374.05Q244.92 374.90 244.92 376.16Q244.92 377.25 245.58 377.95Q246.25 378.64 247.23 379.04Q248.22 379.43 249.88 379.90Q251.89 380.45 253.08 380.96Q254.27 381.47 255.12 382.45Q255.97 383.44 256 385.07Q256 386.57 255.19 387.74Q254.37 388.91 252.91 389.59Q251.45 390.27 249.54 390.27M268.24 390.27Q265.05 390.27 263.03 388.79Q261 387.31 260.76 384.76L263.21 384.76Q263.38 386.33 264.69 387.30Q266 388.27 268.21 388.27Q270.15 388.27 271.25 387.35Q272.36 386.43 272.36 385.07Q272.36 384.12 271.75 383.51Q271.13 382.89 270.20 382.54Q269.26 382.18 267.67 381.77Q265.59 381.23 264.30 380.68Q263.01 380.14 262.11 379.07Q261.21 378 261.21 376.20Q261.21 374.84 262.02 373.68Q262.84 372.52 264.33 371.84Q265.83 371.16 267.73 371.16Q270.73 371.16 272.56 372.68Q274.40 374.19 274.53 376.84L272.15 376.84Q272.05 375.21 270.88 374.21Q269.71 373.20 267.67 373.20Q265.86 373.20 264.74 374.05Q263.62 374.90 263.62 376.16Q263.62 377.25 264.28 377.95Q264.95 378.64 265.93 379.04Q266.92 379.43 268.58 379.90Q270.59 380.45 271.78 380.96Q272.97 381.47 273.82 382.45Q274.67 383.44 274.70 385.07Q274.70 386.57 273.89 387.74Q273.07 388.91 271.61 389.59Q270.15 390.27 268.24 390.27M281.74 367.93Q281.03 367.93 280.52 367.42Q280.01 366.91 280.01 366.17Q280.01 365.42 280.52 364.93Q281.03 364.43 281.74 364.43Q282.46 364.43 282.97 364.93Q283.48 365.42 283.48 366.17Q283.48 366.91 282.97 367.42Q282.46 367.93 281.74 367.93M280.55 371.44L282.93 371.44L282.93 390L280.55 390L280.55 371.44M297.82 390.27Q295.21 390.27 293.12 389.10Q291.02 387.93 289.82 385.77Q288.61 383.61 288.61 380.72Q288.61 377.83 289.83 375.67Q291.06 373.51 293.17 372.34Q295.27 371.16 297.89 371.16Q300.51 371.16 302.64 372.34Q304.76 373.51 305.97 375.67Q307.17 377.83 307.17 380.72Q307.17 383.57 305.95 385.75Q304.73 387.93 302.58 389.10Q300.44 390.27 297.82 390.27M297.82 388.20Q299.66 388.20 301.22 387.37Q302.79 386.53 303.76 384.85Q304.73 383.17 304.73 380.72Q304.73 378.27 303.77 376.59Q302.82 374.90 301.26 374.07Q299.69 373.24 297.86 373.24Q296.02 373.24 294.46 374.07Q292.89 374.90 291.96 376.59Q291.02 378.27 291.02 380.72Q291.02 383.17 291.96 384.85Q292.89 386.53 294.44 387.37Q295.99 388.20 297.82 388.20M321.59 371.10Q324.92 371.10 327.03 373.15Q329.14 375.21 329.14 379.12L329.14 390L326.79 390L326.79 379.39Q326.79 376.37 325.28 374.77Q323.77 373.17 321.15 373.17Q318.46 373.17 316.86 374.87Q315.27 376.57 315.27 379.87L315.27 390L312.89 390L312.89 371.44L315.27 371.44L315.27 374.60Q316.15 372.90 317.82 372Q319.48 371.10 321.59 371.10M334.68 380.68Q334.68 377.83 335.82 375.67Q336.96 373.51 338.98 372.34Q341 371.16 343.55 371.16Q346.21 371.16 348.13 372.39Q350.05 373.61 350.90 375.52L350.90 371.44L353.28 371.44L353.28 390L350.90 390L350.90 385.89Q350.01 387.79 348.09 389.03Q346.17 390.27 343.52 390.27Q341 390.27 338.98 389.08Q336.96 387.89 335.82 385.72Q334.68 383.54 334.68 380.68M350.90 380.72Q350.90 378.47 349.98 376.77Q349.06 375.07 347.48 374.16Q345.90 373.24 344 373.24Q342.02 373.24 340.46 374.12Q338.90 375.01 338 376.69Q337.09 378.37 337.09 380.68Q337.09 382.96 338 384.68Q338.90 386.40 340.46 387.30Q342.02 388.20 344 388.20Q345.90 388.20 347.48 387.28Q349.06 386.36 349.98 384.66Q350.90 382.96 350.90 380.72M360.08 364.84L362.46 364.84L362.46 390L360.08 390L360.08 364.84M378.81 378.10Q378.81 374.60 380.34 371.83Q381.87 369.06 384.52 367.51Q387.18 365.96 390.44 365.96Q394.42 365.96 397.26 367.85Q400.10 369.74 401.39 373.17L398.60 373.17Q397.58 370.76 395.49 369.40Q393.40 368.04 390.44 368.04Q387.82 368.04 385.73 369.26Q383.64 370.48 382.45 372.78Q381.26 375.07 381.26 378.10Q381.26 381.13 382.45 383.40Q383.64 385.68 385.73 386.91Q387.82 388.13 390.44 388.13Q393.40 388.13 395.49 386.79Q397.58 385.44 398.60 383.06L401.39 383.06Q400.10 386.46 397.24 388.33Q394.38 390.20 390.44 390.20Q387.18 390.20 384.52 388.66Q381.87 387.11 380.34 384.36Q378.81 381.60 378.81 378.10M407.47 364.84L409.85 364.84L409.85 390L407.47 390L407.47 364.84M433.42 379.77Q433.42 380.99 433.35 381.64L417.95 381.64Q418.05 383.74 418.97 385.24Q419.88 386.74 421.38 387.50Q422.88 388.27 424.64 388.27Q426.96 388.27 428.54 387.14Q430.12 386.02 430.63 384.12L433.14 384.12Q432.46 386.84 430.24 388.56Q428.01 390.27 424.64 390.27Q422.03 390.27 419.95 389.10Q417.88 387.93 416.71 385.77Q415.53 383.61 415.53 380.72Q415.53 377.83 416.69 375.65Q417.84 373.48 419.92 372.32Q421.99 371.16 424.64 371.16Q427.30 371.16 429.29 372.32Q431.27 373.48 432.35 375.43Q433.42 377.39 433.42 379.77M431 379.70Q431.04 377.62 430.17 376.16Q429.30 374.70 427.81 373.95Q426.31 373.20 424.54 373.20Q421.89 373.20 420.02 374.90Q418.15 376.60 417.95 379.70L431 379.70M438.04 380.68Q438.04 377.83 439.18 375.67Q440.32 373.51 442.34 372.34Q444.36 371.16 446.91 371.16Q449.57 371.16 451.49 372.39Q453.41 373.61 454.26 375.52L454.26 371.44L456.64 371.44L456.64 390L454.26 390L454.26 385.89Q453.37 387.79 451.45 389.03Q449.53 390.27 446.88 390.27Q444.36 390.27 442.34 389.08Q440.32 387.89 439.18 385.72Q438.04 383.54 438.04 380.68M454.26 380.72Q454.26 378.47 453.34 376.77Q452.42 375.07 450.84 374.16Q449.26 373.24 447.36 373.24Q445.38 373.24 443.82 374.12Q442.26 375.01 441.36 376.69Q440.45 378.37 440.45 380.68Q440.45 382.96 441.36 384.68Q442.26 386.40 443.82 387.30Q445.38 388.20 447.36 388.20Q449.26 388.20 450.84 387.28Q452.42 386.36 453.34 384.66Q454.26 382.96 454.26 380.72M472.14 371.10Q475.47 371.10 477.58 373.15Q479.69 375.21 479.69 379.12L479.69 390L477.34 390L477.34 379.39Q477.34 376.37 475.83 374.77Q474.32 373.17 471.70 373.17Q469.01 373.17 467.42 374.87Q465.82 376.57 465.82 379.87L465.82 390L463.44 390L463.44 371.44L465.82 371.44L465.82 374.60Q466.70 372.90 468.37 372Q470.03 371.10 472.14 371.10M487.51 367.93Q486.80 367.93 486.29 367.42Q485.78 366.91 485.78 366.17Q485.78 365.42 486.29 364.93Q486.80 364.43 487.51 364.43Q488.22 364.43 488.73 364.93Q489.24 365.42 489.24 366.17Q489.24 366.91 488.73 367.42Q488.22 367.93 487.51 367.93M486.32 371.44L488.70 371.44L488.70 390L486.32 390L486.32 371.44M504.17 371.10Q507.50 371.10 509.61 373.15Q511.72 375.21 511.72 379.12L511.72 390L509.37 390L509.37 379.39Q509.37 376.37 507.86 374.77Q506.35 373.17 503.73 373.17Q501.04 373.17 499.44 374.87Q497.85 376.57 497.85 379.87L497.85 390L495.47 390L495.47 371.44L497.85 371.44L497.85 374.60Q498.73 372.90 500.40 372Q502.06 371.10 504.17 371.10M526.13 371.16Q528.75 371.16 530.69 372.39Q532.63 373.61 533.48 375.48L533.48 371.44L535.86 371.44L535.86 390.48Q535.86 393.03 534.75 395Q533.65 396.97 531.68 398.04Q529.70 399.11 527.19 399.11Q523.62 399.11 521.26 397.41Q518.89 395.71 518.31 392.79L520.66 392.79Q521.27 394.73 522.99 395.88Q524.71 397.04 527.19 397.04Q528.99 397.04 530.42 396.27Q531.85 395.51 532.66 394.01Q533.48 392.52 533.48 390.48L533.48 385.89Q532.59 387.79 530.67 389.03Q528.75 390.27 526.13 390.27Q523.58 390.27 521.56 389.08Q519.54 387.89 518.40 385.72Q517.26 383.54 517.26 380.68Q517.26 377.83 518.40 375.67Q519.54 373.51 521.56 372.34Q523.58 371.16 526.13 371.16M533.48 380.72Q533.48 378.47 532.56 376.77Q531.64 375.07 530.06 374.16Q528.48 373.24 526.58 373.24Q524.60 373.24 523.04 374.12Q521.48 375.01 520.58 376.69Q519.67 378.37 519.67 380.68Q519.67 382.96 520.58 384.68Q521.48 386.40 523.04 387.30Q524.60 388.20 526.58 388.20Q528.48 388.20 530.06 387.28Q531.64 386.36 532.56 384.66Q533.48 382.96 533.48 380.72M560.54 390.24Q558.20 390.24 556.41 389.42Q554.63 388.61 553.61 387.14Q552.59 385.68 552.52 383.88L555.03 383.88Q555.20 385.61 556.56 386.92Q557.92 388.23 560.54 388.23Q562.96 388.23 564.37 386.99Q565.78 385.75 565.78 383.85Q565.78 382.32 565 381.38Q564.21 380.45 563.06 379.99Q561.90 379.53 559.86 378.98Q557.48 378.34 556.09 377.73Q554.69 377.11 553.71 375.82Q552.72 374.53 552.72 372.32Q552.72 370.48 553.67 369.04Q554.63 367.59 556.36 366.78Q558.09 365.96 560.34 365.96Q563.64 365.96 565.66 367.58Q567.68 369.19 567.99 371.74L565.40 371.74Q565.17 370.28 563.81 369.14Q562.45 368 560.13 368Q557.99 368 556.56 369.14Q555.14 370.28 555.14 372.25Q555.14 373.75 555.92 374.67Q556.70 375.58 557.87 376.06Q559.05 376.54 561.05 377.08Q563.36 377.73 564.79 378.36Q566.22 378.98 567.21 380.28Q568.19 381.57 568.19 383.74Q568.19 385.41 567.31 386.91Q566.42 388.40 564.69 389.32Q562.96 390.24 560.54 390.24M590.94 379.77Q590.94 380.99 590.87 381.64L575.47 381.64Q575.57 383.74 576.49 385.24Q577.41 386.74 578.90 387.50Q580.40 388.27 582.17 388.27Q584.48 388.27 586.06 387.14Q587.64 386.02 588.15 384.12L590.67 384.12Q589.99 386.84 587.76 388.56Q585.53 390.27 582.17 390.27Q579.55 390.27 577.47 389.10Q575.40 387.93 574.23 385.77Q573.05 383.61 573.05 380.72Q573.05 377.83 574.21 375.65Q575.37 373.48 577.44 372.32Q579.51 371.16 582.17 371.16Q584.82 371.16 586.81 372.32Q588.80 373.48 589.87 375.43Q590.94 377.39 590.94 379.77M588.52 379.70Q588.56 377.62 587.69 376.16Q586.82 374.70 585.33 373.95Q583.83 373.20 582.06 373.20Q579.41 373.20 577.54 374.90Q575.67 376.60 575.47 379.70L588.52 379.70M599.03 374.73Q599.81 373 601.43 372.05Q603.04 371.10 605.39 371.10L605.39 373.58L604.74 373.58Q602.16 373.58 600.59 374.97Q599.03 376.37 599.03 379.63L599.03 390L596.65 390L596.65 371.44L599.03 371.44L599.03 374.73M610.66 371.44L616.91 387.69L623.17 371.44L625.69 371.44L618.24 390L615.55 390L608.11 371.44L610.66 371.44M631.47 367.93Q630.75 367.93 630.24 367.42Q629.73 366.91 629.73 366.17Q629.73 365.42 630.24 364.93Q630.75 364.43 631.47 364.43Q632.18 364.43 632.69 364.93Q633.20 365.42 633.20 366.17Q633.20 366.91 632.69 367.42Q632.18 367.93 631.47 367.93M630.28 371.44L632.66 371.44L632.66 390L630.28 390L630.28 371.44M638.33 380.72Q638.33 377.83 639.49 375.67Q640.65 373.51 642.69 372.34Q644.73 371.16 647.34 371.16Q650.78 371.16 653.01 372.86Q655.23 374.56 655.88 377.49L653.33 377.49Q652.85 375.48 651.27 374.34Q649.69 373.20 647.34 373.20Q645.47 373.20 643.98 374.05Q642.48 374.90 641.62 376.59Q640.75 378.27 640.75 380.72Q640.75 383.17 641.62 384.87Q642.48 386.57 643.98 387.42Q645.47 388.27 647.34 388.27Q649.69 388.27 651.27 387.13Q652.85 385.99 653.33 383.95L655.88 383.95Q655.23 386.80 652.99 388.54Q650.74 390.27 647.34 390.27Q644.73 390.27 642.69 389.10Q640.65 387.93 639.49 385.77Q638.33 383.61 638.33 380.72M678.42 379.77Q678.42 380.99 678.35 381.64L662.95 381.64Q663.05 383.74 663.97 385.24Q664.89 386.74 666.38 387.50Q667.88 388.27 669.65 388.27Q671.96 388.27 673.54 387.14Q675.12 386.02 675.63 384.12L678.15 384.12Q677.47 386.84 675.24 388.56Q673.01 390.27 669.65 390.27Q667.03 390.27 664.96 389.10Q662.88 387.93 661.71 385.77Q660.54 383.61 660.54 380.72Q660.54 377.83 661.69 375.65Q662.85 373.48 664.92 372.32Q667 371.16 669.65 371.16Q672.30 371.16 674.29 372.32Q676.28 373.48 677.35 375.43Q678.42 377.39 678.42 379.77M676.01 379.70Q676.04 377.62 675.17 376.16Q674.31 374.70 672.81 373.95Q671.31 373.20 669.55 373.20Q666.89 373.20 665.02 374.90Q663.15 376.60 662.95 379.70L676.01 379.70M690.52 390.27Q687.33 390.27 685.31 388.79Q683.28 387.31 683.04 384.76L685.49 384.76Q685.66 386.33 686.97 387.30Q688.28 388.27 690.49 388.27Q692.43 388.27 693.53 387.35Q694.64 386.43 694.64 385.07Q694.64 384.12 694.03 383.51Q693.41 382.89 692.48 382.54Q691.54 382.18 689.95 381.77Q687.87 381.23 686.58 380.68Q685.29 380.14 684.39 379.07Q683.49 378 683.49 376.20Q683.49 374.84 684.30 373.68Q685.12 372.52 686.61 371.84Q688.11 371.16 690.01 371.16Q693.01 371.16 694.84 372.68Q696.68 374.19 696.81 376.84L694.43 376.84Q694.33 375.21 693.16 374.21Q691.99 373.20 689.95 373.20Q688.14 373.20 687.02 374.05Q685.90 374.90 685.90 376.16Q685.90 377.25 686.56 377.95Q687.23 378.64 688.21 379.04Q689.20 379.43 690.86 379.90Q692.87 380.45 694.06 380.96Q695.25 381.47 696.10 382.45Q696.95 383.44 696.98 385.07Q696.98 386.57 696.17 387.74Q695.35 388.91 693.89 389.59Q692.43 390.27 690.52 390.27M724.66 379.97Q723.91 379.97 723.42 379.46Q722.93 378.95 722.93 378.20Q722.93 377.45 723.42 376.96Q723.91 376.47 724.66 376.47Q725.37 376.47 725.87 376.96Q726.36 377.45 726.36 378.20Q726.36 378.95 725.87 379.46Q725.37 379.97 724.66 379.97M760.33 390.24Q757.98 390.24 756.20 389.42Q754.41 388.61 753.39 387.14Q752.37 385.68 752.30 383.88L754.82 383.88Q754.99 385.61 756.35 386.92Q757.71 388.23 760.33 388.23Q762.74 388.23 764.15 386.99Q765.56 385.75 765.56 383.85Q765.56 382.32 764.78 381.38Q764 380.45 762.84 379.99Q761.69 379.53 759.65 378.98Q757.27 378.34 755.87 377.73Q754.48 377.11 753.49 375.82Q752.51 374.53 752.51 372.32Q752.51 370.48 753.46 369.04Q754.41 367.59 756.14 366.78Q757.88 365.96 760.12 365.96Q763.42 365.96 765.44 367.58Q767.47 369.19 767.77 371.74L765.19 371.74Q764.95 370.28 763.59 369.14Q762.23 368 759.92 368Q757.78 368 756.35 369.14Q754.92 370.28 754.92 372.25Q754.92 373.75 755.70 374.67Q756.48 375.58 757.66 376.06Q758.83 376.54 760.84 377.08Q763.15 377.73 764.58 378.36Q766 378.98 766.99 380.28Q767.98 381.57 767.98 383.74Q767.98 385.41 767.09 386.91Q766.21 388.40 764.47 389.32Q762.74 390.24 760.33 390.24M782.77 371.10Q784.87 371.10 786.56 371.98Q788.24 372.86 789.21 374.68Q790.18 376.50 790.18 379.12L790.18 390L787.83 390L787.83 379.39Q787.83 376.37 786.32 374.77Q784.81 373.17 782.19 373.17Q779.50 373.17 777.90 374.87Q776.31 376.57 776.31 379.87L776.31 390L773.93 390L773.93 364.84L776.31 364.84L776.31 374.60Q777.19 372.93 778.91 372.01Q780.62 371.10 782.77 371.10M795.72 380.68Q795.72 377.83 796.86 375.67Q798 373.51 800.02 372.34Q802.04 371.16 804.59 371.16Q807.25 371.16 809.17 372.39Q811.09 373.61 811.94 375.52L811.94 371.44L814.32 371.44L814.32 390L811.94 390L811.94 385.89Q811.05 387.79 809.13 389.03Q807.21 390.27 804.56 390.27Q802.04 390.27 800.02 389.08Q798 387.89 796.86 385.72Q795.72 383.54 795.72 380.68M811.94 380.72Q811.94 378.47 811.02 376.77Q810.10 375.07 808.52 374.16Q806.94 373.24 805.04 373.24Q803.06 373.24 801.50 374.12Q799.94 375.01 799.04 376.69Q798.13 378.37 798.13 380.68Q798.13 382.96 799.04 384.68Q799.94 386.40 801.50 387.30Q803.06 388.20 805.04 388.20Q806.94 388.20 808.52 387.28Q810.10 386.36 811.02 384.66Q811.94 382.96 811.94 380.72M823.50 374.73Q824.28 373 825.90 372.05Q827.51 371.10 829.86 371.10L829.86 373.58L829.21 373.58Q826.63 373.58 825.06 374.97Q823.50 376.37 823.50 379.63L823.50 390L821.12 390L821.12 371.44L823.50 371.44L823.50 374.73M836.15 367.93Q835.43 367.93 834.92 367.42Q834.41 366.91 834.41 366.17Q834.41 365.42 834.92 364.93Q835.43 364.43 836.15 364.43Q836.86 364.43 837.35 364.93Q837.85 365.42 837.85 366.17Q837.85 366.91 837.35 367.42Q836.86 367.93 836.15 367.93M837.30 371.44L837.30 394.39Q837.30 396.63 836.18 397.70Q835.06 398.77 832.82 398.77L831.15 398.77L831.15 396.73L832.44 396.73Q833.77 396.73 834.35 396.17Q834.92 395.61 834.92 394.28L834.92 371.44L837.30 371.44M843.01 380.68Q843.01 377.83 844.15 375.67Q845.29 373.51 847.32 372.34Q849.34 371.16 851.89 371.16Q854.54 371.16 856.46 372.39Q858.38 373.61 859.23 375.52L859.23 371.44L861.61 371.44L861.61 390L859.23 390L859.23 385.89Q858.35 387.79 856.43 389.03Q854.51 390.27 851.86 390.27Q849.34 390.27 847.32 389.08Q845.29 387.89 844.15 385.72Q843.01 383.54 843.01 380.68M859.23 380.72Q859.23 378.47 858.32 376.77Q857.40 375.07 855.82 374.16Q854.24 373.24 852.33 373.24Q850.36 373.24 848.80 374.12Q847.23 375.01 846.33 376.69Q845.43 378.37 845.43 380.68Q845.43 382.96 846.33 384.68Q847.23 386.40 848.80 387.30Q850.36 388.20 852.33 388.20Q854.24 388.20 855.82 387.28Q857.40 386.36 858.32 384.66Q859.23 382.96 859.23 380.72M877.25 371.10Q879.36 371.10 881.04 371.98Q882.73 372.86 883.70 374.68Q884.67 376.50 884.67 379.12L884.67 390L882.32 390L882.32 379.39Q882.32 376.37 880.81 374.77Q879.29 373.17 876.68 373.17Q873.99 373.17 872.39 374.87Q870.79 376.57 870.79 379.87L870.79 390L868.41 390L868.41 364.84L870.79 364.84L870.79 374.60Q871.68 372.93 873.39 372.01Q875.11 371.10 877.25 371.10M923.15 390L920.06 390L916.83 386.70Q915.10 388.61 913.12 389.51Q911.15 390.41 908.67 390.41Q906.29 390.41 904.45 389.51Q902.62 388.61 901.60 386.97Q900.58 385.34 900.58 383.20Q900.58 380.68 902.01 378.81Q903.43 376.94 906.19 375.89Q905 374.56 904.45 373.43Q903.91 372.29 903.91 370.96Q903.91 368.68 905.54 367.27Q907.17 365.86 909.89 365.86Q912.44 365.86 914.04 367.32Q915.64 368.78 915.54 371.13L913.16 371.13Q913.19 369.60 912.22 368.72Q911.25 367.83 909.79 367.83Q908.23 367.83 907.26 368.70Q906.29 369.57 906.29 370.93Q906.29 372.01 906.88 373.03Q907.48 374.05 908.77 375.45L916.59 383.37Q917.07 382.72 917.88 381.33L920.06 377.69L922.61 377.69L920.03 382.15Q919.11 383.74 918.19 385L923.15 390M908.67 388.33Q910.68 388.33 912.26 387.55Q913.84 386.77 915.27 385.10L907.68 377.42Q902.96 379.15 902.96 383.13Q902.96 384.63 903.69 385.80Q904.42 386.97 905.71 387.65Q907 388.33 908.67 388.33M954.30 390L952.22 384.36L941.41 384.36L939.34 390L936.82 390L945.49 366.54L948.18 366.54L956.81 390L954.30 390M942.13 382.38L951.51 382.38L946.82 369.53L942.13 382.38M963.34 367.93Q962.63 367.93 962.12 367.42Q961.61 366.91 961.61 366.17Q961.61 365.42 962.12 364.93Q962.63 364.43 963.34 364.43Q964.06 364.43 964.55 364.93Q965.04 365.42 965.04 366.17Q965.04 366.91 964.55 367.42Q964.06 367.93 963.34 367.93M964.50 371.44L964.50 394.39Q964.50 396.63 963.38 397.70Q962.25 398.77 960.01 398.77L958.34 398.77L958.34 396.73L959.64 396.73Q960.96 396.73 961.54 396.17Q962.12 395.61 962.12 394.28L962.12 371.44L964.50 371.44M993.40 371.10Q996.66 371.10 998.72 373.15Q1000.78 375.21 1000.78 379.12L1000.78 390L998.43 390L998.43 379.39Q998.43 376.37 996.97 374.77Q995.51 373.17 992.99 373.17Q990.37 373.17 988.81 374.90Q987.24 376.64 987.24 379.94L987.24 390L984.90 390L984.90 379.39Q984.90 376.37 983.44 374.77Q981.97 373.17 979.42 373.17Q976.81 373.17 975.24 374.90Q973.68 376.64 973.68 379.94L973.68 390L971.30 390L971.30 371.44L973.68 371.44L973.68 374.63Q974.56 372.90 976.19 372Q977.83 371.10 979.83 371.10Q982.25 371.10 984.06 372.25Q985.88 373.41 986.70 375.65Q987.45 373.44 989.27 372.27Q991.09 371.10 993.40 371.10M1006.32 380.68Q1006.32 377.83 1007.46 375.67Q1008.60 373.51 1010.62 372.34Q1012.64 371.16 1015.19 371.16Q1017.84 371.16 1019.76 372.39Q1021.69 373.61 1022.54 375.52L1022.54 371.44L1024.92 371.44L1024.92 390L1022.54 390L1022.54 385.89Q1021.65 387.79 1019.73 389.03Q1017.81 390.27 1015.16 390.27Q1012.64 390.27 1010.62 389.08Q1008.60 387.89 1007.46 385.72Q1006.32 383.54 1006.32 380.68M1022.54 380.72Q1022.54 378.47 1021.62 376.77Q1020.70 375.07 1019.12 374.16Q1017.54 373.24 1015.63 373.24Q1013.66 373.24 1012.10 374.12Q1010.53 375.01 1009.63 376.69Q1008.73 378.37 1008.73 380.68Q1008.73 382.96 1009.63 384.68Q1010.53 386.40 1012.10 387.30Q1013.66 388.20 1015.63 388.20Q1017.54 388.20 1019.12 387.28Q1020.70 386.36 1021.62 384.66Q1022.54 382.96 1022.54 380.72M1040.42 371.10Q1043.75 371.10 1045.86 373.15Q1047.97 375.21 1047.97 379.12L1047.97 390L1045.62 390L1045.62 379.39Q1045.62 376.37 1044.11 374.77Q1042.60 373.17 1039.98 373.17Q1037.29 373.17 1035.69 374.87Q1034.10 376.57 1034.10 379.87L1034.10 390L1031.72 390L1031.72 371.44L1034.10 371.44L1034.10 374.60Q1034.98 372.90 1036.65 372Q1038.31 371.10 1040.42 371.10" fill="#ffffff" fill-opacity="0.62"/>
</svg>
